<svg
      data-name="Layer 1"
      xmlns="http://www.w3.org/2000/svg"
      viewBox="0 0 236.71 203.61"
      width="27"
      height="27"
    >
      <path
        d="M68.51,225.44H49a22.36,22.36,0,0,1-16.5-6.51q-6.53-6.51-6.52-16.51V139.19L7.08,121.67v-3.25L25.94,101V44.86q0-10,6.52-16.51A22.36,22.36,0,0,1,49,21.84H68.51V35.42c-1,0-2.72-.05-5.23-.16s-4.43-.17-5.78-.17q-15.84,0-15.83,11.68V98.88a16.83,16.83,0,0,1-5.51,12.35q-5.73,4.38-11.34,8.87L36.16,129q5.51,5.4,5.51,12.25v59.4q0,11.56,15.83,11.57c1.35,0,3.27-.05,5.78-.17s4.25-.16,5.23-.16Z"
        transform="translate(-7.08 -21.84)"
        fill="#65CD1A"
      />
      <path
        d="M158.9,197.59H143.74l-18.42-43.23-18.65,43.23H92v-.45l25.5-55.7L93.54,88.32H108.7l16.84,40.09,17.3-40.09h14.48v.45L133.4,141Z"
        transform="translate(-7.08 -21.84)"
        fill="#65CD1A"
      />
      <path
        d="M243.79,121.67l-18.87,17.52v63.23a22.46,22.46,0,0,1-23,23H182.35V211.86c1,0,2.72,0,5.23.16s4.43.17,5.78.17q15.94,0,15.95-11.57v-59.4a16.73,16.73,0,0,1,5.5-12.25q5.61-4.48,11.23-8.87-5.61-4.48-11.23-8.87a16.81,16.81,0,0,1-5.5-12.35V46.77q0-11.69-15.95-11.68c-1.35,0-3.28,0-5.78.17s-4.25.16-5.23.16V21.84H201.9a22.46,22.46,0,0,1,23,23V101l18.87,17.41Z"
        transform="translate(-7.08 -21.84)"
        fill="#65CD1A"
      />
</svg>